<?xml version="1.0" standalone="no"?>
<!DOCTYPE svg PUBLIC "-//W3C//DTD SVG 20010904//EN"
 "http://www.w3.org/TR/2001/REC-SVG-20010904/DTD/svg10.dtd">
<svg version="1.0" xmlns="http://www.w3.org/2000/svg"
 width="1060.000000pt" height="1060.000000pt" viewBox="0 0 1060.000000 1060.000000"
 preserveAspectRatio="xMidYMid meet">
<metadata>
Created by potrace 1.14, written by Peter Selinger 2001-2017
</metadata>
<g transform="translate(0.000000,1060.000000) scale(0.100000,-0.100000)"
fill="#000000" stroke="none">
<path d="M8847 9165 c-50 -19 44 49 -1680 -1218 -439 -323 -807 -592 -818
-598 -12 -6 -53 -13 -93 -16 -63 -5 -80 -2 -148 25 -106 43 -183 56 -286 49
-254 -16 -457 -188 -522 -443 -36 -141 -18 -295 52 -427 71 -135 222 -253 373
-292 322 -82 683 146 734 463 6 39 6 86 -1 136 -12 90 3 144 50 188 30 29
1217 708 1236 708 19 0 208 -128 302 -204 205 -165 351 -370 394 -555 16 -68
8 -263 -15 -345 -71 -262 -234 -470 -513 -656 -482 -321 -1279 -524 -2282
-581 -268 -15 -901 -6 -1110 15 -937 97 -1715 357 -2225 744 -87 66 -239 217
-295 292 -127 172 -176 341 -146 508 55 307 366 622 865 875 515 262 1116 422
1856 493 225 22 873 26 1095 6 315 -28 603 -70 840 -123 l134 -30 208 208
c114 114 207 212 205 218 -7 19 -319 100 -593 154 -862 172 -1788 171 -2659 0
-723 -142 -1348 -396 -1801 -732 -158 -117 -382 -345 -471 -479 -160 -240
-224 -437 -224 -688 1 -345 146 -646 458 -951 391 -383 997 -684 1745 -869
585 -144 1113 -198 1813 -187 705 12 1259 79 1793 217 968 252 1595 710 1796
1314 55 166 70 265 70 466 0 170 -2 193 -27 285 -34 125 -125 312 -208 429
-81 114 -271 310 -387 401 -50 39 -91 73 -91 77 -1 4 202 124 449 269 510 296
523 306 561 431 48 158 -21 317 -173 398 -54 29 -75 34 -143 37 -52 2 -93 -2
-118 -12z"/>
<path d="M1307 6166 c-11 -28 -8 -2876 3 -3006 14 -161 48 -281 125 -435 173
-347 503 -651 988 -909 l107 -58 0 1545 0 1545 -127 68 c-605 326 -984 749
-1076 1203 -9 43 -16 59 -20 47z"/>
<path d="M8982 6152 c-4 -66 -43 -232 -73 -319 -121 -343 -385 -648 -753 -874
l-86 -52 0 -1549 0 -1550 48 27 c307 178 597 477 728 752 47 99 88 221 116
343 22 95 22 97 25 1460 3 1239 1 1851 -5 1762z"/>
<path d="M7280 4574 c-283 -86 -633 -155 -1005 -199 -187 -22 -278 -30 -582
-51 l-83 -6 0 -1550 0 -1549 78 5 c42 4 140 11 217 17 499 37 972 121 1408
251 l137 41 0 1544 c0 1228 -3 1543 -12 1542 -7 0 -78 -21 -158 -45z"/>
<path d="M3152 3052 l3 -1546 110 -33 c351 -105 773 -186 1180 -228 144 -14
445 -35 513 -35 l32 0 0 1550 0 1550 -29 0 c-67 0 -398 22 -541 36 -403 38
-833 120 -1173 223 l-97 29 2 -1546z"/>
</g>
</svg>
